<svg width="128" height="128" viewBox="0 0 128 128" xmlns="http://www.w3.org/2000/svg">
  <!-- 바깥 둥근 사각형 (밝은 배경 카드) -->
  <rect x="0" y="0" width="128" height="128" rx="26" fill="#ffffff"/>
  <!-- 코드 박스 (VSCode 다크) -->
  <rect x="16" y="22" width="96" height="84" rx="12" fill="#1E1E1E"/>
  <!-- 줄번호 거터 구분선 -->
  <line x1="36" y1="30" x2="36" y2="98" stroke="#3a3a3a" stroke-width="1.5"/>
  <!-- 줄번호 점 -->
  <circle cx="26" cy="40" r="2" fill="#858585"/>
  <circle cx="26" cy="56" r="2" fill="#858585"/>
  <circle cx="26" cy="72" r="2" fill="#858585"/>
  <circle cx="26" cy="88" r="2" fill="#858585"/>
  <!-- 코드 줄 (구문강조 색) -->
  <g stroke-linecap="round" stroke-width="6">
    <line x1="44" y1="40" x2="64" y2="40" stroke="#569CD6"/>
    <line x1="70" y1="40" x2="92" y2="40" stroke="#4EC9B0"/>

    <line x1="50" y1="56" x2="66" y2="56" stroke="#9CDCFE"/>
    <line x1="72" y1="56" x2="100" y2="56" stroke="#CE9178"/>

    <line x1="50" y1="72" x2="78" y2="72" stroke="#DCDCAA"/>
    <line x1="84" y1="72" x2="96" y2="72" stroke="#B5CEA8"/>

    <line x1="44" y1="88" x2="58" y2="88" stroke="#C586C0"/>
    <line x1="64" y1="88" x2="88" y2="88" stroke="#D4D4D4"/>
  </g>
</svg>
